<?xml version="1.0" encoding="UTF-8"?>
<svg id="Layer_2" data-name="Layer 2" xmlns="http://www.w3.org/2000/svg" viewBox="0 0 504 119.89">
  <defs>
    <style>
      .cls-1 {
        fill: #42535a;
      }

      .cls-2 {
        fill: #1f2a2c;
      }
    </style>
  </defs>
  <g id="Layer_1-2" data-name="Layer 1">
    <g>
      <g>
        <path class="cls-1" d="M55.32,116.84c0,.48-.22.88-.68,1.23-.49.37-1.06.55-1.75.55s-1.29-.18-1.77-.55c-.45-.35-.67-.75-.67-1.23v-20.14h-1.4v20.14c0,.87.39,1.6,1.15,2.17.73.54,1.64.82,2.69.82s1.95-.28,2.67-.82h0c.75-.57,1.13-1.3,1.13-2.17v-20.14h-1.37v20.14Z"/>
        <path class="cls-1" d="M72.31,103.24c-.33-.26-.74-.47-1.2-.63-1-.33-2.21-.31-3.17.11-.26.11-.51.24-.73.39v-.73h-1.4v17.44h1.4v-14.46c0-.46.22-.86.67-1.22.48-.38,1.05-.56,1.77-.56s1.27.19,1.75.57c.46.36.69.76.69,1.22v14.46h1.37v-14.46c0-.41-.11-.8-.32-1.18-.21-.36-.48-.68-.82-.95Z"/>
        <rect class="cls-1" x="82.54" y="98.04" width="1.37" height="3.33"/>
        <rect class="cls-1" x="82.54" y="102.38" width="1.37" height="17.44"/>
        <path class="cls-1" d="M96,118.07c-.49-.35-.72-.75-.72-1.23v-13.25h2.94v-1.2h-2.94v-4.08h-1.4v4.08h-1.93v1.2h1.93v13.25c0,.43.11.84.32,1.21.21.36.49.69.84.95.35.26.75.47,1.22.61.45.14.94.21,1.46.21h.12l.41-.34v-.86h-.34c-.75,0-1.39-.19-1.91-.56Z"/>
        <path class="cls-1" d="M112.69,103.24c-.33-.26-.74-.47-1.2-.63-.94-.31-2.06-.3-2.96,0-.46.15-.86.36-1.2.63-.34.27-.62.59-.82.95-.21.38-.32.77-.32,1.18v11.47c0,.87.39,1.6,1.15,2.17.73.54,1.64.82,2.69.82s1.95-.28,2.67-.82h0c.75-.57,1.13-1.3,1.13-2.17v-2.07h-1.37v2.07c0,.48-.22.88-.68,1.23-.49.37-1.06.55-1.75.55s-1.29-.18-1.77-.55c-.45-.35-.67-.75-.67-1.23v-5.97h6.24v-5.5c0-.41-.11-.8-.32-1.18-.21-.36-.48-.68-.82-.95ZM107.59,109.7v-4.33c0-.46.22-.86.67-1.22.48-.38,1.05-.56,1.77-.56s1.27.19,1.75.57c.46.36.69.76.69,1.22v4.33h-4.87Z"/>
        <path class="cls-1" d="M129.23,103.13c-.24-.15-.49-.28-.77-.4-.99-.43-2.2-.43-3.17-.11-.46.15-.86.36-1.2.63-.34.27-.62.59-.82.95-.21.38-.32.77-.32,1.18v11.47c0,.87.39,1.6,1.15,2.17.73.54,1.64.82,2.69.82.61,0,1.17-.1,1.68-.3.27-.11.52-.24.76-.39v.69h1.37v-23.23h-1.37v6.53ZM128.54,118.07c-.49.37-1.06.55-1.75.55s-1.29-.18-1.77-.55h0c-.45-.35-.67-.75-.67-1.23v-11.47c0-.46.22-.86.67-1.22.48-.38,1.05-.56,1.76-.56s1.26.19,1.75.57c.46.36.69.76.69,1.22v11.47c0,.48-.22.88-.68,1.23Z"/>
        <path class="cls-1" d="M162.62,96.88c-.63,3.4-1.29,6.82-1.96,10.26-.55,2.82-1.1,5.67-1.63,8.51l-3.6-19.05h-1.28v23.29h1.4v-15.59l2.91,15.52h1.15l.05-.28c.61-3.16,1.21-6.29,1.8-9.39.37-1.95.74-3.92,1.12-5.9v15.64h1.33v-23.29h-1.24l-.05.28Z"/>
        <path class="cls-1" d="M179.57,103.24c-.33-.26-.74-.47-1.2-.63-.94-.31-2.06-.3-2.96,0-.46.15-.86.36-1.2.63-.34.27-.62.59-.82.95-.21.38-.32.77-.32,1.18v11.47c0,.87.39,1.6,1.15,2.17.73.54,1.64.82,2.69.82s1.95-.28,2.67-.82h0c.75-.57,1.13-1.3,1.13-2.17v-2.07h-1.37v2.07c0,.48-.22.88-.68,1.23-.49.37-1.06.55-1.75.55s-1.29-.18-1.77-.55c-.45-.35-.67-.75-.67-1.23v-5.97h6.24v-5.5c0-.41-.11-.8-.32-1.18-.21-.36-.48-.68-.82-.95ZM174.47,109.7v-4.33c0-.46.22-.86.67-1.22.48-.38,1.05-.56,1.77-.56s1.27.19,1.75.57c.46.36.69.76.69,1.22v4.33h-4.87Z"/>
        <path class="cls-1" d="M192.84,118.07c-.49-.35-.72-.75-.72-1.23v-13.25h2.94v-1.2h-2.94v-4.08h-1.4v4.08h-1.93v1.2h1.93v13.25c0,.43.11.84.32,1.21.21.36.49.69.84.95.35.26.75.47,1.22.61.45.14.94.21,1.46.21h.12l.41-.34v-.86h-.34c-.75,0-1.4-.19-1.91-.56Z"/>
        <path class="cls-1" d="M209.53,103.24c-.33-.26-.74-.47-1.2-.63-1-.33-2.21-.31-3.17.11-.26.11-.51.24-.73.39v-6.51h-1.4v23.23h1.4v-14.46c0-.46.22-.86.67-1.22.48-.38,1.05-.56,1.77-.56s1.26.19,1.75.57c.46.36.69.76.69,1.22v14.46h1.37v-14.46c0-.41-.11-.8-.32-1.18-.21-.36-.48-.68-.82-.95Z"/>
        <path class="cls-1" d="M226.29,103.24c-.33-.26-.74-.47-1.2-.63-.94-.31-2.06-.3-2.96,0-.46.15-.86.36-1.2.63-.34.27-.62.59-.82.95-.21.38-.32.77-.32,1.18v11.47c0,.87.39,1.6,1.15,2.17.73.54,1.64.82,2.69.82s1.95-.28,2.67-.82h0c.75-.57,1.13-1.3,1.13-2.17v-11.47c0-.41-.11-.8-.32-1.18-.21-.36-.48-.68-.82-.95ZM225.39,118.07c-.49.37-1.06.55-1.75.55s-1.29-.18-1.77-.55h0c-.45-.35-.67-.75-.67-1.23v-11.47c0-.46.22-.86.67-1.22.48-.38,1.05-.56,1.77-.56s1.27.19,1.75.57c.46.36.69.76.69,1.22v11.47c0,.48-.22.88-.68,1.23Z"/>
        <path class="cls-1" d="M242.83,103.13c-.24-.15-.49-.29-.77-.4-1-.43-2.2-.43-3.17-.11-.46.15-.87.37-1.2.63-.34.27-.62.59-.82.95-.21.38-.32.77-.32,1.18v11.47c0,.87.39,1.6,1.15,2.17.73.54,1.64.82,2.69.82.61,0,1.17-.1,1.68-.3.27-.11.52-.24.76-.39v.69h1.37v-23.23h-1.37v6.53ZM242.15,118.07c-.49.37-1.06.55-1.75.55s-1.29-.18-1.77-.55h0c-.45-.35-.67-.75-.67-1.23v-11.47c0-.46.22-.86.67-1.22.48-.38,1.05-.56,1.77-.56s1.26.19,1.75.57c.46.36.69.76.69,1.22v11.47c0,.48-.22.88-.68,1.23Z"/>
        <rect class="cls-1" x="253.28" y="98.04" width="1.37" height="3.33"/>
        <rect class="cls-1" x="253.28" y="102.38" width="1.37" height="17.44"/>
        <path class="cls-1" d="M270.24,103.24c-.33-.26-.74-.47-1.2-.63-.93-.31-2.06-.3-2.96,0-.46.15-.86.36-1.2.63-.34.27-.62.59-.82.95-.21.38-.32.77-.32,1.18v2.84c0,.5.14.96.4,1.35.25.38.59.7,1.01.97.31.18.61.33.89.44.27.11.65.25,1.14.4l.44.11h0s.02,0,.04,0c.29.11.57.2.82.28.23.08.43.17.57.25.29.19.53.42.71.67.17.23.24.46.24.71v3.46c0,.48-.22.88-.68,1.23-.48.37-1.07.55-1.75.55s-1.29-.18-1.77-.55c-.45-.35-.67-.75-.67-1.23v-2.07h-1.4v2.07c0,.85.39,1.57,1.15,2.15.73.56,1.64.84,2.69.84.51,0,1.01-.08,1.46-.23.46-.15.86-.36,1.2-.63.34-.27.61-.58.82-.93.21-.37.32-.77.32-1.2v-3.46c0-.51-.14-.96-.42-1.36-.27-.38-.65-.71-1.12-.96-.28-.16-.54-.29-.79-.38-.23-.09-.5-.19-.84-.31-.08-.02-.17-.04-.26-.05-.05-.02-.11-.04-.18-.06-.08-.02-.14-.04-.21-.08-.3-.11-.6-.22-.89-.33-.28-.1-.53-.22-.74-.33-.53-.33-.79-.77-.79-1.34v-2.84c0-.46.22-.86.67-1.22.48-.38,1.06-.56,1.77-.56s1.26.19,1.75.57c.46.36.69.76.69,1.22v2.07h1.37v-2.07c0-.41-.11-.8-.32-1.18-.21-.36-.48-.68-.82-.95Z"/>
        <path class="cls-1" d="M283.51,118.07c-.49-.35-.72-.75-.72-1.23v-13.25h2.94v-1.2h-2.94v-4.08h-1.4v4.08h-1.93v1.2h1.93v13.25c0,.43.11.83.32,1.21.21.36.49.68.84.95.35.26.75.47,1.22.61.45.14.94.21,1.46.21h.12l.41-.35v-.86h-.34c-.75,0-1.39-.19-1.91-.56Z"/>
        <path class="cls-1" d="M314.64,97.46c-.33-.26-.74-.47-1.2-.63-.46-.15-.95-.23-1.46-.23-1.05,0-1.96.28-2.69.84-.76.58-1.15,1.3-1.15,2.15v17.25c0,.87.39,1.6,1.15,2.17.73.54,1.63.82,2.69.82s1.95-.28,2.67-.82c.75-.57,1.13-1.3,1.13-2.17v-2.07h-1.37v2.07c0,.48-.22.88-.68,1.23-.49.37-1.06.55-1.75.55s-1.29-.18-1.77-.55c-.45-.35-.67-.75-.67-1.23v-17.25c0-.48.22-.88.67-1.23.48-.37,1.06-.55,1.77-.55s1.27.18,1.75.55c.46.35.68.75.68,1.23v2.07h1.37v-2.07c0-.43-.11-.83-.33-1.2-.21-.35-.48-.67-.82-.93Z"/>
        <path class="cls-1" d="M331.4,103.24c-.33-.26-.74-.47-1.2-.63-1-.33-2.21-.31-3.17.11-.26.11-.51.24-.73.39v-6.51h-1.4v23.23h1.4v-14.46c0-.46.22-.86.67-1.22.48-.38,1.06-.56,1.77-.56s1.26.19,1.75.57c.46.36.69.76.69,1.22v14.46h1.37v-14.46c0-.41-.11-.8-.32-1.18-.21-.36-.48-.68-.82-.95Z"/>
        <path class="cls-1" d="M347.94,116.84c0,.48-.22.88-.68,1.23-.48.37-1.07.55-1.75.55s-1.29-.18-1.77-.55c-.45-.35-.67-.75-.67-1.23v-14.46h-1.4v14.46c0,.87.39,1.6,1.15,2.17.73.54,1.64.82,2.69.82s1.95-.28,2.67-.82h0c.75-.57,1.13-1.3,1.13-2.17v-14.46h-1.37v14.46Z"/>
        <path class="cls-1" d="M364.93,103.32c-.33-.29-.74-.52-1.2-.68-1.01-.36-2.21-.32-3.17.09-.27.11-.51.24-.73.39v-.73h-1.4v17.44h1.4v-14.46c0-.46.22-.86.67-1.22.48-.38,1.05-.56,1.76-.56.35,0,.68.05.98.16.3.11.56.25.78.43.21.18.38.39.5.62.12.24.18.48.18.73v.34h1.37v-.34c0-.43-.11-.84-.32-1.23-.2-.37-.48-.71-.81-.99Z"/>
        <path class="cls-1" d="M380.44,103.24c-.33-.26-.74-.47-1.2-.63-.94-.31-2.06-.3-2.96,0-.46.15-.86.36-1.2.63-.34.27-.62.59-.82.95-.21.38-.32.77-.32,1.18v11.47c0,.87.39,1.6,1.15,2.17.73.54,1.63.82,2.69.82s1.95-.28,2.67-.82h0c.75-.57,1.13-1.3,1.13-2.17v-2.07h-1.37v2.07c0,.48-.22.88-.68,1.23-.49.37-1.06.55-1.75.55s-1.29-.18-1.77-.55c-.45-.35-.67-.75-.67-1.23v-11.47c0-.46.22-.86.67-1.22.48-.38,1.05-.56,1.76-.56s1.26.19,1.75.57c.46.36.69.76.69,1.22v2.07h1.37v-2.07c0-.41-.11-.8-.32-1.18-.21-.36-.48-.68-.82-.95Z"/>
        <path class="cls-1" d="M398.02,104.19c-.21-.36-.48-.68-.82-.95-.33-.26-.74-.47-1.2-.63-1.01-.34-2.21-.31-3.17.11-.27.11-.51.24-.73.39v-6.51h-1.4v23.23h1.4v-14.46c0-.46.22-.86.67-1.22.48-.38,1.05-.56,1.76-.56s1.26.19,1.75.57c.46.36.69.76.69,1.22v14.46h1.37v-14.46c0-.41-.11-.8-.32-1.18Z"/>
      </g>
      <g>
        <path class="cls-2" d="M86.37,85.05v-29.91c-1.54,3.37-3.09,6.75-4.65,10.14-1.55,3.39-3.1,6.77-4.65,10.14-.72,1.57-1.45,3.19-2.2,4.86s-1.47,3.26-2.17,4.76h-3.26l-13.73-30.01v30.01h-6.69v-46.78h5.71l16.34,35.26,16.18-35.26h5.68v46.78h-6.56Z"/>
        <path class="cls-2" d="M133.74,85.05l-4.93-13.41h-16.15c-.39,1.04-.8,2.14-1.24,3.28-.44,1.14-.87,2.3-1.3,3.47-.44,1.17-.86,2.33-1.29,3.46s-.81,2.2-1.16,3.2h-7.21l17.65-46.78h5.38l17.45,46.78h-7.21ZM120.69,49.66c-.07.17-.14.36-.23.57s-.16.4-.23.57c-.59,1.68-1.17,3.31-1.76,4.89-.11.26-.21.53-.31.82s-.2.55-.31.82c-.37,1.04-.73,2.07-1.09,3.08s-.72,2.02-1.09,3.02c-.09.24-.15.42-.2.54-.04.12-.08.23-.11.33-.03.1-.07.21-.11.34-.04.13-.11.33-.2.59h11.38l-5.74-15.56ZM121.34,47.77l-.52,1.63-.85-1.7v-.03c-.04-.11-.1-.27-.18-.47-.08-.21-.17-.46-.28-.77l2.48.03s-.03.09-.1.21c-.07.12-.13.25-.2.39s-.13.27-.2.39-.1.19-.1.21l-.07.1Z"/>
        <path class="cls-2" d="M154.53,67.83v17.22h-6.62v-46.78h12.23c5.04,0,8.89,1.17,11.53,3.52,2.64,2.35,3.96,5.82,3.96,10.41s-1.49,8.25-4.47,11.19c-1.52,1.46-3.29,2.56-5.32,3.31-2.02.75-4.35,1.13-6.98,1.13h-4.34ZM154.53,44.7v16.64h4.27c3.31,0,5.81-.77,7.5-2.3,1.7-1.53,2.54-3.69,2.54-6.48,0-5.24-3.08-7.86-9.23-7.86h-5.09Z"/>
        <path class="cls-2" d="M183.52,85.05v-46.78h6.69v40.35h17.26v6.43h-23.94Z"/>
        <path class="cls-2" d="M214.99,85.05v-46.78h23.84v6.43h-17.16v13.57h15.95v6.39h-15.95v13.96h18.17v6.43h-24.86Z"/>
        <path class="cls-2" d="M303.88,85.05l-4.93-13.41h-16.15c-.39,1.04-.8,2.14-1.24,3.28-.44,1.14-.87,2.3-1.31,3.47-.43,1.17-.86,2.33-1.29,3.46s-.81,2.2-1.16,3.2h-7.21l17.65-46.78h5.38l17.45,46.78h-7.21ZM290.83,49.66c-.07.17-.14.36-.23.57-.09.21-.16.4-.23.57-.59,1.68-1.17,3.31-1.76,4.89-.11.26-.21.53-.31.82-.1.28-.2.55-.31.82-.37,1.04-.73,2.07-1.09,3.08s-.72,2.02-1.09,3.02c-.09.24-.15.42-.2.54s-.08.23-.11.33c-.03.1-.07.21-.11.34-.04.13-.11.33-.2.59h11.38l-5.74-15.56ZM291.48,47.77l-.52,1.63-.85-1.7v-.03c-.04-.11-.1-.27-.18-.47-.08-.21-.17-.46-.28-.77l2.48.03s-.03.09-.1.21c-.07.12-.13.25-.2.39s-.13.27-.2.39-.1.19-.1.21l-.07.1Z"/>
        <path class="cls-2" d="M330.06,85.05h-4.73l-17.19-46.78h7.27l12.4,34.51c.57-1.5,1.15-3.02,1.74-4.57.6-1.54,1.2-3.1,1.81-4.66.78-2.02,1.59-4.11,2.41-6.26.83-2.15,1.65-4.31,2.48-6.48.83-2.16,1.64-4.31,2.45-6.43.8-2.12,1.58-4.16,2.32-6.12h7.18l-18.14,46.78Z"/>
        <path class="cls-2" d="M356.4,85.05v-46.78h23.84v6.43h-17.16v13.57h15.95v6.39h-15.95v13.96h18.17v6.43h-24.86Z"/>
        <path class="cls-2" d="M421.63,85.05l-24.73-33.4v33.4h-6.69v-46.78h5.09l24.5,33.21v-33.21h6.65v46.78h-4.83Z"/>
        <path class="cls-2" d="M469.63,65.97c0,13.22-5.72,19.83-17.16,19.83s-16.44-6.38-16.44-19.15v-28.38h6.69v27.96c0,8.76,3.44,13.15,10.31,13.15s9.95-4.24,9.95-12.72v-28.38h6.65v27.69Z"/>
        <path class="cls-2" d="M479.14,85.05v-46.78h23.84v6.43h-17.16v13.57h15.95v6.39h-15.95v13.96h18.17v6.43h-24.86Z"/>
      </g>
      <g>
        <g>
          <g>
            <path class="cls-1" d="M19.72,49.85l.67.65s4.04,3.93,7.58,7.35l-1.51-7.75c-2.38-2.3-5.47-5.31-6.82-6.63-1.49,1.32-5.01,4.41-7.56,6.58l-1.69,7.75c3.82-3.22,8.55-7.29,8.62-7.35l.71-.61Z"/>
            <path class="cls-1" d="M30.01,68.36l-1.36-7.01c-3.01-2.9-7.36-7.13-9.02-8.74-1.83,1.57-6.8,5.83-9.95,8.45l-1.62,7.43h.3s11.34-9.47,11.34-9.47l10.31,9.33Z"/>
            <path class="cls-1" d="M19.71,40.69l.68.67s2.71,2.65,5.39,5.25l-1.51-7.75c-1.67-1.62-3.61-3.52-4.62-4.51-1.12,1.01-3.33,3-5.12,4.52l-1.72,7.88c2.95-2.55,6.14-5.39,6.19-5.43l.71-.63Z"/>
            <polygon class="cls-1" points="19.65 61.74 11.53 68.52 27.24 68.6 19.65 61.74"/>
            <path class="cls-1" d="M19.7,31.53l.69.68s1.48,1.46,3.19,3.13l-3.91-20.05-4.42,20.24c1.91-1.69,3.7-3.32,3.73-3.35l.71-.65Z"/>
          </g>
          <polygon class="cls-1" points="26.78 6.59 21.05 6.59 21.05 0 18.32 0 18.32 6.59 12.59 6.59 12.59 9.31 18.32 9.31 18.32 23.27 21.05 23.27 21.05 9.31 26.78 9.31 26.78 6.59"/>
        </g>
        <g>
          <path class="cls-1" d="M38.48,95.67h-.47v-4.57h-3.68v-23.66H3.87v23.66H.45v4.57h-.45v3.04h.45v19.21h2.41v-19.21h32.74v19.72h2.41v-19.72h.47v-3.04ZM6.28,69.85h25.64v21.25h-4.84l-.08-8.71c.09-.51.07-1.08.06-1.59,0-.15-.01-.3-.01-.43,0-4.38-3.57-7.95-7.95-7.95s-7.95,3.57-7.95,7.95v10.72h-4.87v-21.25ZM24.36,91.1h-10.49v-10.72c0-2.88,2.35-5.23,5.23-5.23s5.23,2.35,5.23,5.23c0,.16,0,.33.01.52.01.32.03.84-.02,1.04l-.04.17.08,9ZM2.86,95.67v-2.16h32.74v2.16H2.86Z"/>
          <path class="cls-1" d="M19.3,100.64c-4.54,0-8.23,3.69-8.23,8.23s3.69,8.23,8.23,8.23,8.23-3.69,8.23-8.23-3.69-8.23-8.23-8.23ZM19.3,114.38c-3.04,0-5.51-2.47-5.51-5.51s2.47-5.51,5.51-5.51,5.51,2.47,5.51,5.51-2.47,5.51-5.51,5.51Z"/>
        </g>
      </g>
    </g>
  </g>
</svg>